<svg xmlns="http://www.w3.org/2000/svg" xmlns:xlink="http://www.w3.org/1999/xlink" viewBox="0 0 48 48">
    <defs>
        <path id="icon-48-brand-smb-a" d="M45.2 22.8H3.1797l5-10.5495h31.75z"></path>
        <path id="icon-48-brand-smb-c" d="M29.6224 22.9032a.75.75 0 1 1-1.481.2376l-1.745-10.873a.75.75 0 1 1 1.481-.2376l1.745 10.873zm-8.9046 19.5973a.75.75 0 1 1-1.5 0v-11.04c0-.7169.4107-1.396 1.141-1.396h7.794c.7299 0 1.14.6795 1.14 1.396v11.04a.75.75 0 1 1-1.5 0v-10.936h-7.075v10.936zM7.75 41.1216v-17.992a.75.75 0 0 1 .75-.75H40a.75.75 0 0 1 .75.75v17.992c0 1.1755-.953 2.129-2.129 2.129H9.879c-1.176 0-2.129-.9535-2.129-2.129zm1.5-17.242v17.242c0 .3472.2816.629.629.629h28.742a.6291.6291 0 0 0 .629-.629v-17.242h-30zm12.74-11.0793l-1.6596 10.3405a.75.75 0 1 1-1.481-.2376l1.6214-10.1029h-4.6739L12.0938 23.272a.75.75 0 1 1-1.4142-.5l3.5263-9.9717H8.9482l-4.9262 9.16c.0716.2372.3112.419.607.419H8.5v1.5H4.629c-1.1685 0-2.129-.9177-2.129-2.067a.75.75 0 0 1 .0895-.3552L7.75 11.8614V7.1283c0-1.1755.953-2.129 2.129-2.129h28.742c1.176 0 2.129.9535 2.129 2.129v4.7332l5.1605 9.5957a.75.75 0 0 1 .0895.3552c0 1.1493-.9605 2.067-2.129 2.067H40v-1.5h3.871c.2958 0 .5354-.1818.607-.419l-4.9263-9.1601h-5.6085l3.8528 9.8826a.75.75 0 1 1-1.3976.5448l-4.0651-10.4274H21.99zm17.26-5.672a.6291.6291 0 0 0-.629-.629H9.879a.6291.6291 0 0 0-.629.629v4.172h30v-4.172z"></path>
    </defs>
    <g fill="none" fill-rule="evenodd">
        <mask id="icon-48-brand-smb-b" fill="#fff">
            <use xlink:href="#icon-48-brand-smb-a"></use>
        </mask>
        <use fill="#27E4C4" xlink:href="#icon-48-brand-smb-a"></use>
        <g fill="#27E4C4" mask="url(#icon-48-brand-smb-b)">
            <path d="M0 0h48v48H0z"></path>
        </g>
        <mask id="icon-48-brand-smb-d" fill="#fff">
            <use xlink:href="#icon-48-brand-smb-c"></use>
        </mask>
        <use fill="#444" fill-rule="nonzero" xlink:href="#icon-48-brand-smb-c"></use>
        <g fill="#444" mask="url(#icon-48-brand-smb-d)">
            <path d="M0 0h48v48H0z"></path>
        </g>
    </g>
</svg>