<svg xmlns="http://www.w3.org/2000/svg" xmlns:xlink="http://www.w3.org/1999/xlink" viewBox="0 0 48 48">
    <defs>
        <path id="icon-48-brand-mishacon-a" d="M12.62 13.8658c-.5637.4385-1.1603.9342-1.7896 1.4871-.8103-.5755-1.4284-1.6478-1.8543-3.2167-.6389-2.3533.0382-7.4752 5.7003-9.066 5.6621-1.5909 10.0491 2.6222 10.57 6.6735-3.2915.3697-6.1878.6038-9.4544 2.093-.5214.2377-1.0925.5624-1.7134.974 1.8118-1.1388 4.1057-2.0075 6.9732-2.4018 4.7082-.6473 12.4495-.59 16.8806 8.1172 1.4726 2.8938 1.8847 8.8093.8728 8.8924-7.4577.4626-18.7393-.083-23.4956-7.489.2845 4.9373-1.5695 8.839-5.562 11.7053-.7268-2.3762-1.2584-4.9211-1.595-7.6348-.33-2.6605.7189-7.0218 4.4674-10.1342z"></path>
        <path id="icon-48-brand-mishacon-c" d="M38.6348 24.7138c-8.2881.3057-13.397-1.2756-17.2292-6.2565a.75.75 0 1 1 1.1888-.9146c3.4259 4.4528 8.0615 5.9361 15.7886 5.679-.123-.728-.2193-1.2953-.2466-1.454-1.3425-7.7885-8.664-12.1759-17.302-10.7575C12.333 12.4063 7.6235 18.313 8.9835 26.2035c.0886.5137.1491.9572.2633 1.8749.0331.2664.0484.3886.0666.5317.1123.8833.215 1.5486.3379 2.1173 3.4397-2.459 5.5291-7.0228 4.8456-10.9877-.113-.6554.6197-1.1227 1.1663-.7439l.1226.085a.75.75 0 0 1 .2137.2269c2.0027 3.2949 5.732 5.4274 10.7171 6.5717 3.9273.9014 8.0919 1.0938 11.7555.8824.1907-.011.3581-.022.501-.0323-.095-.569-.217-1.2946-.3384-2.0157zM20.1442 9.608c-.2681-.4705-.6201-.868-1.0348-1.1747-1.06-.7838-2.4253-.908-3.599-.2947-.8356.4363-1.4723 1.1904-1.8046 2.115a.75.75 0 1 1-1.4116-.5072c.4568-1.2714 1.3445-2.3226 2.5216-2.9373 1.6893-.8829 3.6699-.7026 5.1855.4181.7169.5302 1.2956 1.248 1.6818 2.1002a.761.761 0 0 1 .0202.049 20.6804 20.6804 0 0 1 2.4194-.1296c-.7289-3.5948-4.4217-6.018-8.3334-5.4007-3.9507.6229-6.5955 4.1057-5.939 7.7657.1686.94.5413 1.8187 1.0895 2.5945 2.216-2.28 5.3541-3.8878 9.2044-4.5983zm19.0483 18.609a33.7325 33.7325 0 0 1-.6339.0423 48.8298 48.8298 0 0 1-2.5813.0805c.1396.8038-.3777 1.5348-1.175 1.6461-.8111.1126-1.6045-.4616-1.7712-1.282a1.5104 1.5104 0 0 1-.0247-.4428c-2.1955-.128-4.4401-.4182-6.6253-.9198-4.381-1.0056-7.9076-2.7523-10.2751-5.3885-.2383 3.9964-2.5666 8.0324-5.991 10.2746a.756.756 0 0 1-.098.0543c1.5035 7.847 9.0099 13.0943 16.9293 11.7613 7.616-1.281 12.9203-8.2088 12.2462-15.826zM9.9346 15.3687c-.7935-1.0222-1.331-2.2105-1.5608-3.492-.8087-4.509 2.4207-8.7615 7.1818-9.5122 4.7499-.7496 9.2632 2.263 10.0706 6.759a7.954 7.954 0 0 1 .0321.1927c7.1235.607 12.741 5.1459 13.9563 12.1968.0367.213.2452 1.4304.4683 2.7557 1.7253-.195 3.3112 1.1297 3.622 2.989.3198 1.9136-1.1141 4.1546-2.9036 4.4579a.7508.7508 0 0 1-.2015.0068c-.9444 6.867-6.2481 12.5961-13.4046 13.8-7.3058 1.2296-14.2925-2.6237-17.3446-8.9853a.7465.7465 0 0 1-.3668.1756c-1.7895.3112-3.8641-1.3698-4.1808-3.3139-.3158-1.939.813-3.7888 2.5876-4.1036a55.9779 55.9779 0 0 1-.0652-.4958c-.0184-.145-.0339-.269-.067-.5357-.1113-.8947-.1697-1.3223-.253-1.8054-.747-4.3336.1773-8.1529 2.4292-11.0896zM8.1291 30.7765c-.9059.1767-1.5348 1.2198-1.3456 2.381.1887 1.1588 1.5204 2.2378 2.4433 2.0773a.7598.7598 0 0 1 .0649-.0084 16.3298 16.3298 0 0 1-.8141-3.0308 14.57 14.57 0 0 1-.3485-1.4191zm32.2018-5.0238c.202 1.2203.364 2.2346.3499 2.2673.0675.7297.0852 1.4537.0558 2.1686.871-.3009 1.665-1.6297 1.4888-2.6837-.1788-1.0698-1.021-1.8012-1.8945-1.7522zm-22.2998 5.9512c-.1668-.8203.3547-1.577 1.1666-1.6896.8111-.1133 1.6045.4608 1.7712 1.2812.1668.821-.3547 1.5771-1.1666 1.6904-.8111.1126-1.6045-.4616-1.7712-1.282zm14.0703 6.0852a.75.75 0 0 1 1.4816-.2337c.2784 1.7649-1.7514 3.005-4.4801 3.4614-2.7078.4528-5.0458-.0354-5.3138-1.7358a.75.75 0 0 1 1.4817-.2335c.077.4888 1.6398.815 3.5846.4898 1.9864-.3322 3.339-1.1586 3.246-1.7482z"></path>
    </defs>
    <g fill="none" fill-rule="evenodd">
        <mask id="icon-48-brand-mishacon-b" fill="#fff">
            <use xlink:href="#icon-48-brand-mishacon-a"></use>
        </mask>
        <use fill="#D8D8D8" fill-rule="nonzero" xlink:href="#icon-48-brand-mishacon-a"></use>
        <g fill="#27E4C4" mask="url(#icon-48-brand-mishacon-b)">
            <path d="M0 0h48v48H0z"></path>
        </g>
        <mask id="icon-48-brand-mishacon-d" fill="#fff">
            <use xlink:href="#icon-48-brand-mishacon-c"></use>
        </mask>
        <use fill="#4A4A4A" fill-rule="nonzero" xlink:href="#icon-48-brand-mishacon-c"></use>
        <g fill="#444" mask="url(#icon-48-brand-mishacon-d)">
            <path d="M0 0h48v48H0z"></path>
        </g>
    </g>
</svg>
