<svg xmlns="http://www.w3.org/2000/svg" fill="none" viewBox="0 0 24 25"><defs/><g fill="#213F5F" clip-path="url(#clip0)"><path d="M9.43 19.71a9.35 9.35 0 11-.02-18.701 9.35 9.35 0 01.02 18.7zm0-16.69a7.35 7.35 0 10-.02 14.7 7.35 7.35 0 00.02-14.7z"/><path d="M22.92 24.31a1 1 0 01-.69-.28l-7.4-7.13a.998.998 0 010-1.42 1 1 0 011.41 0l7.4 7.13a1.001 1.001 0 010 1.42 1.001 1.001 0 01-.72.28z"/></g><defs><clipPath id="clip0"><path fill="#fff" d="M0 0h24v24H0z" transform="translate(0 .5)"/></clipPath></defs></svg>